<svg xmlns="http://www.w3.org/2000/svg" xmlns:xlink="http://www.w3.org/1999/xlink" width="200" zoomAndPan="magnify" viewBox="0 0 150 149.999998" height="200" preserveAspectRatio="xMidYMid meet" version="1.0"><defs><g/><clipPath id="de283d43f4"><rect x="0" width="47" y="0" height="71"/></clipPath><clipPath id="ccf2e79fbe"><path d="M 33 70 L 68 70 L 68 141.359375 L 33 141.359375 Z M 33 70 " clip-rule="nonzero"/></clipPath><clipPath id="9a063c13ea"><rect x="0" width="35" y="0" height="72"/></clipPath><clipPath id="635c0e8f85"><path d="M 54 70 L 88 70 L 88 141.359375 L 54 141.359375 Z M 54 70 " clip-rule="nonzero"/></clipPath><clipPath id="45cd8c1d02"><path d="M 2 17 L 33.761719 17 L 33.761719 58 L 2 58 Z M 2 17 " clip-rule="nonzero"/></clipPath><clipPath id="de614dfa09"><rect x="0" width="34" y="0" height="72"/></clipPath><clipPath id="dc153e87a9"><path d="M 0.160156 1 L 89.921875 1 L 89.921875 86 L 0.160156 86 Z M 0.160156 1 " clip-rule="nonzero"/></clipPath><clipPath id="c7d32826e3"><rect x="0" width="90" y="0" height="142"/></clipPath></defs><rect x="-15" width="180" fill="#ffffff" y="-15" height="179.999997" fill-opacity="1"/><rect x="-15" width="180" fill="#ffffff" y="-15" height="179.999997" fill-opacity="1"/><g transform="matrix(1, 0, 0, 1, 26, 6)"><g clip-path="url(#c7d32826e3)"><g transform="matrix(1, 0, 0, 1, 2, 69)"><g clip-path="url(#de283d43f4)"><g fill="#ffb101" fill-opacity="1"><g transform="translate(0.178598, 57.438472)"><g><path d="M 34.65625 -1.109375 C 33.007812 -0.203125 31.421875 0.4375 29.890625 0.8125 C 28.367188 1.1875 26.582031 1.375 24.53125 1.375 C 17.050781 1.375 11.304688 -1.078125 7.296875 -5.984375 C 3.992188 -9.984375 2.34375 -14.472656 2.34375 -19.453125 C 2.34375 -22.734375 3.117188 -25.882812 4.671875 -28.90625 C 6.628906 -32.695312 9.40625 -35.578125 13 -37.546875 C 16.144531 -39.285156 19.785156 -40.15625 23.921875 -40.15625 C 27.953125 -40.15625 31.644531 -39.285156 35 -37.546875 C 38.582031 -35.671875 41.347656 -32.859375 43.296875 -29.109375 C 44.828125 -26.171875 45.59375 -22.9375 45.59375 -19.40625 C 45.59375 -16.8125 45.195312 -14.441406 44.40625 -12.296875 C 43.625 -10.160156 42.320312 -7.921875 40.5 -5.578125 L 44.9375 -1.09375 C 45.519531 -0.476562 45.8125 -0.0195312 45.8125 0.28125 C 45.8125 0.6875 45.691406 0.976562 45.453125 1.15625 C 45.222656 1.34375 44.753906 1.484375 44.046875 1.578125 L 39.203125 2.34375 C 39.066406 2.34375 38.894531 2.363281 38.6875 2.40625 C 38.476562 2.445312 38.304688 2.46875 38.171875 2.46875 C 37.847656 2.46875 37.410156 2.128906 36.859375 1.453125 Z M 27.078125 -8.953125 L 23.09375 -12.9375 C 22.476562 -13.539062 22.171875 -14 22.171875 -14.3125 C 22.171875 -14.707031 22.300781 -14.992188 22.5625 -15.171875 C 22.820312 -15.359375 23.304688 -15.488281 24.015625 -15.5625 L 29.046875 -16.203125 C 29.316406 -16.234375 29.488281 -16.257812 29.5625 -16.28125 C 29.75 -16.300781 29.898438 -16.3125 30.015625 -16.3125 C 30.328125 -16.3125 30.773438 -16 31.359375 -15.375 L 33.109375 -13.484375 C 34.347656 -15.304688 34.96875 -17.269531 34.96875 -19.375 C 34.96875 -22.257812 33.910156 -24.796875 31.796875 -26.984375 C 29.660156 -29.203125 27.046875 -30.3125 23.953125 -30.3125 C 20.859375 -30.3125 18.222656 -29.191406 16.046875 -26.953125 C 13.992188 -24.835938 12.96875 -22.242188 12.96875 -19.171875 C 12.96875 -15.953125 14.117188 -13.3125 16.421875 -11.25 C 18.484375 -9.394531 20.984375 -8.46875 23.921875 -8.46875 C 24.910156 -8.46875 25.960938 -8.628906 27.078125 -8.953125 Z M 27.078125 -8.953125 "/></g></g></g></g></g><g clip-path="url(#ccf2e79fbe)"><g transform="matrix(1, 0, 0, 1, 33, 70)"><g clip-path="url(#9a063c13ea)"><g fill="#8c8c8c" fill-opacity="1"><g transform="translate(0.953798, 57.849629)"><g><path d="M 13.703125 -30.484375 L 10.109375 -30.484375 C 9.242188 -30.484375 8.703125 -30.59375 8.484375 -30.8125 C 8.265625 -31.03125 8.15625 -31.566406 8.15625 -32.421875 L 8.15625 -37.125 C 8.15625 -37.976562 8.265625 -38.515625 8.484375 -38.734375 C 8.703125 -38.953125 9.242188 -39.0625 10.109375 -39.0625 L 21.921875 -39.0625 C 22.773438 -39.0625 23.3125 -38.953125 23.53125 -38.734375 C 23.757812 -38.515625 23.875 -37.976562 23.875 -37.125 L 23.875 -1.953125 C 23.875 -1.085938 23.757812 -0.546875 23.53125 -0.328125 C 23.3125 -0.109375 22.773438 0 21.921875 0 L 15.65625 0 C 14.789062 0 14.25 -0.109375 14.03125 -0.328125 C 13.8125 -0.546875 13.703125 -1.085938 13.703125 -1.953125 Z M 13.703125 -30.484375 "/></g></g></g></g></g></g><g clip-path="url(#635c0e8f85)"><g transform="matrix(1, 0, 0, 1, 54, 70)"><g clip-path="url(#de614dfa09)"><g clip-path="url(#45cd8c1d02)"><g fill="#343434" fill-opacity="1"><g transform="translate(0.45476, 57.849629)"><g><path d="M 20.09375 -8.578125 L 30.9375 -8.578125 C 31.789062 -8.578125 32.328125 -8.46875 32.546875 -8.25 C 32.765625 -8.03125 32.875 -7.492188 32.875 -6.640625 L 32.875 -1.953125 C 32.875 -1.085938 32.765625 -0.546875 32.546875 -0.328125 C 32.328125 -0.109375 31.789062 0 30.9375 0 L 5.03125 0 C 4.3125 0 3.804688 -0.0820312 3.515625 -0.25 C 3.234375 -0.425781 3.09375 -0.734375 3.09375 -1.171875 C 3.09375 -1.472656 3.378906 -1.929688 3.953125 -2.546875 L 11.453125 -10.390625 C 14.734375 -13.804688 17.441406 -17.109375 19.578125 -20.296875 C 21.160156 -22.660156 21.953125 -24.898438 21.953125 -27.015625 C 21.953125 -28.429688 21.503906 -29.628906 20.609375 -30.609375 C 19.722656 -31.585938 18.65625 -32.078125 17.40625 -32.078125 C 16.21875 -32.078125 15.238281 -31.675781 14.46875 -30.875 C 13.707031 -30.070312 13.328125 -29.050781 13.328125 -27.8125 C 13.316406 -26.863281 13.203125 -26.269531 12.984375 -26.03125 C 12.773438 -25.789062 12.234375 -25.671875 11.359375 -25.671875 L 4.265625 -25.671875 C 3.503906 -25.671875 2.988281 -25.753906 2.71875 -25.921875 C 2.445312 -26.097656 2.3125 -26.414062 2.3125 -26.875 C 2.3125 -28.113281 2.613281 -29.539062 3.21875 -31.15625 C 3.820312 -32.78125 4.570312 -34.203125 5.46875 -35.421875 C 6.84375 -37.253906 8.65625 -38.617188 10.90625 -39.515625 C 12.925781 -40.316406 15.070312 -40.71875 17.34375 -40.71875 C 21.914062 -40.71875 25.609375 -39.347656 28.421875 -36.609375 C 31.128906 -33.953125 32.484375 -30.628906 32.484375 -26.640625 C 32.484375 -24.367188 32.019531 -22.285156 31.09375 -20.390625 C 30.164062 -18.492188 28.691406 -16.597656 26.671875 -14.703125 Z M 20.09375 -8.578125 "/></g></g></g></g></g></g></g><g clip-path="url(#dc153e87a9)"><path fill="#343434" d="M 73.367188 1.992188 C 73.5625 2.023438 73.691406 2.078125 73.878906 2.144531 C 76.960938 5.394531 79.222656 21.464844 79.574219 26.296875 C 79.75 28.734375 79.652344 29.503906 78.066406 31.292969 C 81.742188 35.03125 87.210938 39.191406 89.019531 44.039062 C 89.316406 44.835938 89.53125 46.503906 89.660156 47.402344 C 87.480469 45.875 87.128906 45.246094 84.550781 44.082031 C 84.589844 49.257812 85.929688 51.949219 83.660156 57.167969 C 79.871094 53.515625 79.832031 52.5 74.316406 50.695312 C 75.476562 51.867188 77.996094 54.121094 78.8125 55.398438 C 82.832031 61.675781 80.484375 71.53125 76.769531 77.441406 C 76.429688 77.980469 75.613281 79.519531 74.992188 79.417969 C 74.773438 78.851562 74.777344 76.765625 74.761719 76.054688 C 74.511719 66.324219 73.265625 58.355469 62.578125 55.285156 C 63.648438 56.113281 64.695312 56.96875 65.722656 57.847656 C 68.941406 60.644531 70.238281 63.164062 70.421875 67.382812 C 70.824219 76.605469 67.921875 79.121094 62.597656 85.230469 C 62.691406 83.300781 62.957031 79.546875 62.714844 77.703125 C 62.519531 74.828125 61.363281 71.21875 60.03125 68.71875 C 57.765625 64.46875 53.800781 61.433594 49.199219 60.175781 C 40.90625 57.910156 31.566406 59.980469 23.835938 63.277344 C 22.171875 63.921875 20.464844 64.484375 18.828125 65.199219 C 18.289062 65.417969 18.089844 65.652344 17.53125 65.902344 C 16.105469 66.539062 13.28125 68.730469 11.800781 68.535156 C 11.34375 68.472656 10.316406 66.6875 9.8125 66.160156 C 7.648438 63.898438 5.179688 61.964844 3.171875 59.5625 C 2.25 58.453125 1.414062 56.820312 0.726562 55.523438 C 3.265625 54.945312 5.402344 53.925781 7.804688 52.96875 C 11.914062 51.335938 15.917969 49.679688 19.867188 47.691406 C 23.128906 46.054688 24.613281 46.101562 26.871094 43.0625 C 25.8125 37.988281 26.496094 36.085938 29.929688 32.21875 C 35.457031 26 43.464844 22.582031 51.347656 20.445312 C 54.601562 19.5625 58.15625 19.257812 60.992188 17.261719 C 64.574219 14.664062 67.371094 10.507812 69.875 6.914062 C 71.0625 5.214844 71.941406 3.507812 73.367188 1.992188 Z M 41.1875 46.078125 C 44.441406 46.15625 50.261719 46.511719 52.777344 44.199219 C 53.3125 43.703125 55.75 40.429688 55.769531 39.871094 C 55.453125 39.625 55.609375 39.6875 55.097656 39.726562 C 50.492188 40.328125 45.773438 41.023438 42.097656 44.128906 C 41.726562 44.441406 40.574219 45.410156 40.496094 45.839844 C 40.792969 46.113281 40.707031 46.03125 41.1875 46.078125 Z M 74.460938 22.894531 C 75.144531 21.605469 74.105469 17.449219 73.722656 15.976562 C 73.515625 15.191406 73.324219 14.773438 72.585938 14.421875 C 71.882812 16.675781 72.921875 21.292969 74.460938 22.894531 Z M 74.460938 22.894531 " fill-opacity="1" fill-rule="nonzero"/></g><path fill="#343434" d="M 38.363281 61.957031 C 39.96875 61.890625 41.304688 62.257812 42.832031 62.398438 C 63.953125 64.378906 62.65625 82.988281 42.246094 87.40625 L 42.09375 80.488281 C 41.867188 78.507812 40.734375 76.496094 39.363281 75.070312 C 35.765625 71.328125 29.417969 70.105469 24.429688 70.660156 C 21.871094 70.945312 19.617188 71.683594 16.9375 71.652344 C 16.640625 71.421875 16.726562 71.554688 16.664062 71.085938 C 16.808594 70.550781 17.070312 70.1875 17.40625 69.753906 C 21.9375 63.925781 31.433594 62.753906 38.363281 61.957031 Z M 38.363281 61.957031 " fill-opacity="1" fill-rule="nonzero"/><path fill="#343434" d="M 39.292969 1.054688 C 40.8125 1.382812 46.027344 11.585938 47.152344 13.457031 C 48.121094 15.074219 49.757812 17.46875 50.625 19.101562 C 48.765625 20.222656 45.390625 21.28125 43.222656 22.019531 C 40.945312 22.914062 37.121094 24.691406 35.097656 26.003906 C 35.878906 23.324219 35.691406 21.449219 36.050781 19.105469 C 36.707031 14.792969 37.699219 4.691406 39.292969 1.054688 Z M 39.292969 1.054688 " fill-opacity="1" fill-rule="nonzero"/></g></g></svg>